<svg xmlns="http://www.w3.org/2000/svg" width="1192.505" height="375.693" viewBox="0 0 1192.505 375.693">
  <g id="image_1_" data-name="image (1)" transform="translate(-428.088 -833.182)">
    <path id="Path_2" data-name="Path 2" d="M661.9,1150.31c34.522,3.83,65.382-5.33,94.013-23.32,24.532-15.42,44.71-35.64,63.359-57.55,16.2-19.03,32.35-38.09,52.394-53.37,18.857-14.37,39.033-26.056,62.446-31.25,43.168-9.575,78.313,4.082,106.613,37.15,3.76,4.39,7.55,8.83,10.51,14.66-8.73-2.58-16.67-5.86-25.05-7.63-41.032-8.68-78.646-.13-113.367,22.66-19.679,12.92-36.3,29.16-50.977,47.48-20.254,25.28-41.579,49.49-68.407,68.18-25.411,17.69-52.8,30.21-84.206,32.36-45.329,3.12-90.127-26.3-104.16-69.4C623.1,1140.67,641.389,1148.09,661.9,1150.31Z" fill="#f00b0c"/>
    <path id="Path_3" data-name="Path 3" d="M583.419,847.42c10.1-10.2,22.362-14.121,36.01-14.149,39.325-.083,78.65-.154,117.975.009,24.506.1,41.556,13.409,47.461,36.919.928,3.694,3.055,3.245,5.484,3.246,23.328.015,46.693.861,69.974-.174,37.74-1.678,62.047,30.955,66.692,56.715,1.732,9.609.845,19.275,1.164,28.915.068,2.05-.789,2.544-2.65,2.519-6.164-.081-12.333-.17-18.493.009-3.108.09-2.89-1.684-2.953-3.8-.274-9.278,1.037-18.639-1.887-27.775a50.47,50.47,0,0,0-20.467-27.426c-5.578-3.731-11.862-4.958-18.506-4.952-31.992.03-63.985-.091-95.977.082-4.211.023-5.345-1.106-5.224-5.258.178-6.119.8-12.312-.87-18.388-2.462-8.961-8.419-14.107-17.343-15.858a49.631,49.631,0,0,0-9.441-.757q-55.488-.078-110.976-.037c-1.666,0-3.334-.029-5,.037-15.247.606-23.951,9.422-24.3,24.641a73.818,73.818,0,0,0,.068,10.487c.535,4.424-1.357,5.165-5.292,5.132-19.827-.168-39.657-.067-59.486-.062q-16.246,0-32.493.006c-21.1.023-37.029,12.165-42.811,32.633a55.733,55.733,0,0,0-1.989,15.285c.032,62.156.3,124.306-.133,186.456-.158,22.64,16.816,40.87,39.448,44.15,8.625,1.25,17.3.58,25.956.6,2.812.01,3.71.78,3.6,3.64-.224,5.82-.091,11.66-.064,17.49.008,1.61-.017,3-2.239,2.98-15.115-.15-30.269.87-44.961-4.42-28.178-10.14-45.6-34.46-45.6-64.32q-.006-93.72-.008-187.455c0-29.137,17.457-56.615,42.408-66.959a57.6,57.6,0,0,1,22.418-4.118c24.5.016,48.99-.067,73.484.093,3.274.021,4.6-.89,5.284-4.087a45,45,0,0,1,11.737-22.049Z" fill="#e9e5e5"/>
    <path id="Path_4" data-name="Path 4" d="M1025.44,1083.33c3.48-7.54,8.78-9.92,16.88-9.36,11.91.81,11.95.19,9.72,11.69-4.06,20.92-8.19,41.83-12.11,62.77-.66,3.53-1.91,5.18-5.74,4.71-4.25-.51-10.03,1.82-12.47-.91-2.53-2.84.72-8.11,1.44-12.3,1.54-9.02,3.5-17.98,5.25-26.96.34-1.75.5-3.53.78-5.49-2.92.3-3.45,2.52-4.49,4.05-6.85,10.03-13.86,19.97-20.32,30.25-3.81,6.07-9.256,2.84-13.954,3.27-3.523.33-2.814-3.57-3.453-5.68-2.791-9.24-5.29-18.57-7.941-27.85-.481-1.68-.635-3.56-2.759-5.37-.823,3.72-1.612,6.97-2.258,10.26-2.087,10.62-4.311,21.21-6.078,31.89-.656,3.96-2.234,5.35-6.141,4.85a30.026,30.026,0,0,0-7.98.01c-5.231.79-5.107-1.67-4.307-5.66q6.866-34.275,13.292-68.64c.693-3.73,2.159-5.25,5.834-4.75.819.11,1.669-.02,2.5.05,4.936.41,11.163-2.11,14.482,1.01,3.185,3,3.575,9.04,5.02,13.8,3.041,10,5.968,20.04,9.4,31.61C1008.92,1107.56,1017.08,1095.59,1025.44,1083.33Z" fill="#f00b0c"/>
    <path id="Path_5" data-name="Path 5" d="M1177.97,1109.95c.6-2.5,2.36-2.05,3.75-2.06,8.49-.05,16.99.11,25.49-.09,3.41-.09,3.77,1.1,3.14,4.09-2.04,9.6-3.82,19.26-5.71,28.9-.35,1.82-.85,3.4-2.8,4.38-12.9,6.49-26.32,10.58-40.91,8.19-20.21-3.31-30.8-20.82-25.63-41.91,7.58-30.89,46.45-47.63,74.03-31.87a33.528,33.528,0,0,1,2.95,1.88c4.6,3.35,4.62,3.72.56,7.75l-1.78,1.75c-2.74,2.68-5.06,6.52-8.34,7.71-3.37,1.23-5.77-3.46-9.06-4.88-9.2-3.98-17.93-3.38-25.99,2.48-8.75,6.36-13.09,15.07-11.56,25.97,1.17,8.41,8.36,13.86,17.46,14.03,3.55.06,6.88-.99,10.29-1.75,5.52-1.21,5.24-5.67,5.94-9.65.21-1.21-.52-1.81-1.71-1.85-.5-.02-1-.02-1.5-.08-3.55-.43-8.97,1.66-10.23-1.05C1174.98,1118.92,1177.21,1114.26,1177.97,1109.95Z" fill="#f00b0c"/>
    <path id="Path_6" data-name="Path 6" d="M1607.16,1074.17c3.97,0,7.48.05,10.97-.02,2.18-.05,2.8.48,2.3,2.91q-7.41,36.435-14.49,72.94c-.48,2.47-1.57,3.23-4.02,3.13a123.923,123.923,0,0,0-13.49.02c-3.28.2-3.99-.75-3.27-3.9,1.68-7.29,2.86-14.7,4.63-21.97.91-3.74-.29-4.48-3.75-4.39-7.83.2-15.67.26-23.5-.01-3.06-.11-3.98,1.11-4.47,3.76-1.4,7.69-3.04,15.34-4.45,23.03-.45,2.46-1.28,3.65-4.11,3.48-4.65-.29-9.33-.16-13.99-.06-2.44.06-3.4-.18-2.78-3.23,4.94-24.11,9.63-48.28,14.42-72.43.4-2.05,1.06-3.53,3.85-3.34a114.6,114.6,0,0,0,13.99.02c3.22-.16,3.47,1.17,2.92,3.8-1.93,9.27-3.71,18.57-5.64,28.32,10.13,0,19.78-.09,29.42.06,2.61.04,2.46-1.7,2.77-3.21,1.53-7.51,3.32-14.97,4.37-22.54C1599.54,1075.5,1601.39,1073.01,1607.16,1074.17Z" fill="#d5bebe"/>
    <path id="Path_7" data-name="Path 7" d="M1270.96,1136.62c11.25-.03,11.01-.07,9.25,10.6-.77,4.64-2.41,6.11-7.27,6.01-17.81-.36-35.63-.2-53.44-.09-3.03.02-4.14-.53-3.45-3.88q7.245-35.2,14.12-70.46c.7-3.61,2.09-4.77,5.83-4.73,17.64.21,35.29.17,52.94,0,3.64-.04,4.58.88,3.88,4.52-2.36,12.27-2.25,12.29-14.62,12.29-8.49.01-16.98.13-25.47-.05-3.07-.07-4.29.89-4.94,3.98-2.22,10.49-2.36,10.45,8.52,10.46,7.83,0,15.65.11,23.47-.02,2.68-.05,3.42.6,2.99,3.39-2.03,13.2-1.95,13.21-15.28,13.22-6.99,0-13.99.14-20.97-.08-3.15-.1-4.44,1.06-4.97,4.06-2.23,12.44-3.54,10.61,8.44,10.76C1256.81,1136.68,1263.64,1136.62,1270.96,1136.62Z" fill="#f00b0c"/>
    <path id="Path_8" data-name="Path 8" d="M1405.88,1134.57c.27,3.33,2.51,1.98,3.82,2,11.33.11,22.65.16,33.98.02,3.26-.05,4.67.13,3.77,4.23-2.67,12.21-2.44,12.26-14.87,12.26-15.66,0-31.31-.07-46.97.05-2.91.02-4.18-.26-3.46-3.74q7.365-35.64,14.32-71.37c.6-3.12,1.75-3.94,4.79-3.92,17.98.14,35.97.19,53.95-.02,3.98-.05,4.26,1.31,3.57,4.61-2.52,12.14-2.44,12.15-15,12.15-8.33,0-16.66.12-24.98-.06-2.98-.07-4.3.63-4.95,3.83-2.17,10.76-2.34,10.73,8.75,10.73,7.49,0,14.99.12,22.48-.07,3.25-.08,4.34.57,3.58,4.15-2.66,12.42-2.53,12.44-15.33,12.44-6.82,0-13.67.26-20.47-.1-3.68-.2-5.04,1.07-5.38,4.52C1407.23,1128.91,1406.47,1131.5,1405.88,1134.57Z" fill="#d5bebe"/>
    <path id="Path_9" data-name="Path 9" d="M1051.49,1137.36c11.96-20,23.76-39.68,35.39-59.45,1.63-2.76,3.38-4.38,6.67-3.73a4.218,4.218,0,0,0,.5,0c5.42.39,12.27-2.31,15.88,1.01,3.32,3.06,3.34,9.78,4.65,14.92,5.01,19.65,9.9,39.33,14.99,58.96.79,3.04.53,4.23-2.95,4.08-4.98-.23-9.98-.11-14.97,0-2.29.05-3.46-.48-4.11-3.04-2.73-10.91-2.85-10.88-14.29-10.88-5.82,0-11.66.2-17.47-.08-3.31-.16-5.59.87-6.58,3.93-2.78,8.68-8.67,11.57-17.39,10.07-2.72-.46-5.6-.07-9.37-.07C1045.63,1147.51,1048.46,1142.59,1051.49,1137.36Z" fill="#f00b0c"/>
    <path id="Path_10" data-name="Path 10" d="M1461.74,1136.26c-13.03-25.82,2.54-56.58,31.19-62.21,14.2-2.78,27.06-.18,38.27,9.42,2.55,2.19,2.92,3.72.26,6.19-3.78,3.5-7.15,7.42-10.84,11.32-5.7-6.77-12.21-11.38-21.54-10.18-16.74,2.16-26.39,22.36-17.41,36.65,4.84,7.69,14.33,10.64,23.78,7.09,3.08-1.16,6.47-2.48,8.69-4.73,3.59-3.64,5.34-1.94,7.43,1.2a20.744,20.744,0,0,0,3.82,4.6c4.14,3.46,2.49,5.69-1.1,8.21-9.79,6.86-20.28,11.4-32.5,10.67C1478.75,1153.71,1468.59,1148.02,1461.74,1136.26Z" fill="#d5bebe"/>
    <path id="Path_11" data-name="Path 11" d="M755.022,1045.77c-6.159,3.63-11.995,7.09-18.994,11.24,8.517-34.02,16.731-66.828,25.133-100.386a103.618,103.618,0,0,1,25.654,38.558,99.309,99.309,0,0,1,6.106,23.088c.387,3.1-.276,5.09-3.339,6.84C778.044,1031.72,766.738,1038.73,755.022,1045.77Z" fill="#f00b0c"/>
    <path id="Path_12" data-name="Path 12" d="M716.06,1078.21c25.918-15.58,51.532-30.96,77.818-46.75a95.79,95.79,0,0,1-3.79,30.83,107.108,107.108,0,0,1-18.317,36.3c-1.44,1.87-2.652,3.44-5.687,2.65-20.259-5.23-40.575-10.23-61.37-15.44C708.062,1082.16,712.326,1080.9,716.06,1078.21Z" fill="#48a40d"/>
    <path id="Path_13" data-name="Path 13" d="M591.536,987.449A114.389,114.389,0,0,1,603.681,967.6c1.815-2.476,3.475-2.744,6.289-2.027,19.968,5.091,39.987,9.985,61.28,15.261l-90.123,54.108a109.264,109.264,0,0,1,10.409-47.493Z" fill="#cec9c9"/>
    <path id="Path_14" data-name="Path 14" d="M618.418,1021.56c6.853-4.13,13.406-8.04,21.01-12.59-8.521,34.1-16.807,67.26-25.285,101.19a106.088,106.088,0,0,1-25.462-37.81,122.919,122.919,0,0,1-6.605-24.52c-.543-3.09.366-4.76,3.069-6.34C596.213,1035.05,607.141,1028.36,618.418,1021.56Z" fill="#cec9c9"/>
    <path id="Path_15" data-name="Path 15" d="M731.526,1002.57c-15.073-25.111-29.952-49.917-45.029-75.053,3.743-1.437,7.351-.66,10.8-.327a106.2,106.2,0,0,1,54.688,21.11c1.766,1.328,3.166,2.406,2.443,5.246-5.084,19.949-9.944,39.956-15.058,60.683C735.808,1010.56,734.092,1006.49,731.526,1002.57Z" fill="#f00b0c"/>
    <path id="Path_16" data-name="Path 16" d="M663.121,1136.78a108.551,108.551,0,0,1-39.847-18.73c-1.812-1.36-3.147-2.45-2.433-5.24,5.033-19.64,9.865-39.34,14.781-59.01a9.565,9.565,0,0,1,.9-1.7c17.415,29.01,34.692,57.79,52.427,87.34C679.912,1139.92,671.7,1138.62,663.121,1136.78Z" fill="#f00b0c"/>
    <path id="Path_17" data-name="Path 17" d="M657.767,930.92c18.711-5.272,18.719-5.277,28.272,10.579q10.949,18.171,21.849,36.37c.838,1.4,1.556,2.865,2.915,5.386l-98.947-24.721C624.965,944.926,640.218,936.427,657.767,930.92Z" fill="#f00b0c"/>
    <path id="Path_18" data-name="Path 18" d="M719.875,1134.78a116.613,116.613,0,0,1-18.4,4.07c-1.918.3-3.684.52-5.066-1.81-10.424-17.58-21.013-35.07-32.381-53.96,33.662,8.39,66.054,16.48,99.432,24.8C750.812,1120.79,736.443,1129.16,719.875,1134.78Z" fill="#073ec9"/>
    <path id="Path_19" data-name="Path 19" d="M1335.15,1153.07c-3.44.41-4.51-.23-3.77-3.71,3.82-18.03,7.25-36.15,11.05-54.19.69-3.28-.07-4.08-3.22-3.97-5.32.18-10.65-.13-15.97.11-3.19.15-3.75-1.05-2.86-3.71.05-.16.1-.32.14-.48.95-4.2.59-10.01,3.22-12.16s8.25-.76,12.56-.77c16.65-.04,33.29.14,49.93-.1,4.11-.06,4.54,1.07,3.76,4.74-2.63,12.39-2.5,12.41-15.28,12.41-10.64,0-10.67,0-12.84,10.52-3.28,15.94-6.6,31.87-9.69,47.85-.51,2.66-1.36,3.64-4.07,3.52C1343.96,1152.93,1339.79,1153.07,1335.15,1153.07Z" fill="#d5bebe"/>
    <path id="Path_20" data-name="Path 20" d="M914.336,1153.09c-3.256.32-4.2-.52-3.576-3.6q7.311-35.9,14.319-71.86c.495-2.52,1.617-3.65,4.343-3.52a116.779,116.779,0,0,0,12.964-.01c3.674-.24,4.1,1.26,3.457,4.39-4.084,20.02-8.028,40.07-12.06,60.1-.949,4.71-.577,11.06-3.487,13.64-3.207,2.86-9.54.64-14.505.86C915.459,1153.11,915.126,1153.09,914.336,1153.09Z" fill="#f00b0c"/>
    <path id="Path_21" data-name="Path 21" d="M1599,1194.28h19.99c-3.73,2.66-205.89,2.97-210.12,1.39,0-.46,0-.93-.01-1.39Z" fill="#f00b0c"/>
    <path id="Path_22" data-name="Path 22" d="M1002,1194.28h117.72c-.01.54-.01,1.08-.01,1.62H909.178q-.009-.81-.017-1.62Z" fill="#f00b0c"/>
    <path id="Path_23" data-name="Path 23" d="M1276.22,1208.69c-3.13.35-4.78-.06-4.62-3.55.29-6.47.16-12.97.05-19.45-.04-2.27.49-3.47,3.03-3.14a31.241,31.241,0,0,0,3.99.03c9.91-.03,14.61,4.03,14.74,12.73.13,8.84-4.71,13.23-14.75,13.38C1277.99,1208.7,1277.33,1208.69,1276.22,1208.69Z" fill="#d5c9c9"/>
    <path id="Path_24" data-name="Path 24" d="M1360.28,1196.73c-1.42,7.33-5.24,11.37-11.08,12.09a12.2,12.2,0,0,1-12.17-6.91,13.51,13.51,0,0,1,2.55-16.02c3.51-3.39,7.71-4.67,12.33-2.85C1357.85,1185.37,1360.38,1190.1,1360.28,1196.73Z" fill="#d5c9c9"/>
    <path id="Path_25" data-name="Path 25" d="M1172.8,1198.25c.89,4.19.6,7.67-3.54,9.6-3.82,1.78-12.09.7-14.85-1.65-1.33-1.13-.71-2-.22-3,.63-1.28,1.49-.83,2.43-.28a13.089,13.089,0,0,0,9.06,2c1.56-.27,2.87-.97,3.21-2.67.35-1.81-.8-2.85-2.26-3.41-2.47-.95-5.02-1.72-7.54-2.54-2.94-.96-5.02-2.67-4.98-6.03a7.2,7.2,0,0,1,5.11-7.21,12.494,12.494,0,0,1,10.6.79c1.09.6,2.74.78,1.81,2.76-.8,1.68-1.72,1.47-3.14.66a9.764,9.764,0,0,0-5.28-1.28c-2.13.11-4.15.59-4.61,2.97-.49,2.52,1.42,3.37,3.43,4.04C1165.74,1194.25,1170.02,1194.3,1172.8,1198.25Z" fill="#d5c9c9"/>
    <path id="Path_26" data-name="Path 26" d="M1251.33,1194.67c-.53,9.76-3.55,13.72-10.46,14.16-6.48.4-11.11-3.43-11.72-10.22-.4-4.47-.14-8.99-.2-13.48-.03-1.46.06-2.6,2.05-2.57,1.91.03,2.08,1.06,2.06,2.57-.06,3.66-.09,7.33,0,10.99.15,5.97,2.58,8.94,7.12,8.91,4.39-.02,6.63-2.72,6.9-8.53.15-3.33-.01-6.67.13-9.99.06-1.59-1.05-4.05,2.14-3.94,3.17.12,1.78,2.63,1.91,4.15C1251.46,1189.21,1251.32,1191.72,1251.33,1194.67Z" fill="#d5c9c9"/>
    <path id="Path_27" data-name="Path 27" d="M1198.15,1197.96a38.406,38.406,0,0,1,.03-4.97c.7-4.87-.16-8.14-6.23-6.87-1.21.25-2.3.02-2.31-1.71-.01-1.7.98-1.81,2.26-1.81q8.475.015,16.93-.04c1.31-.01,2.24.14,2.27,1.82.03,1.75-1.03,2-2.25,1.73-6.61-1.45-6.77,2.54-6.49,7.31.24,4.14.02,8.3.07,12.45.02,1.69-.18,2.91-2.39,2.8-2.03-.1-1.88-1.39-1.88-2.74C1198.17,1203.44,1198.16,1200.95,1198.15,1197.96Z" fill="#d5c9c9"/>
    <path id="Path_28" data-name="Path 28" d="M1312.61,1206.25c0-7.08-.02-13.73.02-20.38.01-1.38-.59-3.17,1.86-3.27,2.71-.12,2.26,1.75,2.25,3.38q0,9.975-.01,19.96c-.01,1.16.16,2.49-1.44,2.71C1313.86,1208.85,1312.58,1208.59,1312.61,1206.25Z" fill="#d5c9c9"/>
  </g>
</svg>
